<svg width="249" height="30" viewBox="0 0 249 30" fill="none" xmlns="http://www.w3.org/2000/svg">
<path d="M42.5 7.96C43.98 7.96 45.2733 8.25333 46.38 8.84C47.4867 9.42667 48.34 10.2533 48.94 11.32C49.5533 12.3733 49.86 13.5933 49.86 14.98C49.86 16.3533 49.5533 17.5733 48.94 18.64C48.34 19.7067 47.48 20.5333 46.36 21.12C45.2533 21.7067 43.9667 22 42.5 22H37.24V7.96H42.5ZM42.28 19.04C43.5733 19.04 44.58 18.6867 45.3 17.98C46.02 17.2733 46.38 16.2733 46.38 14.98C46.38 13.6867 46.02 12.68 45.3 11.96C44.58 11.24 43.5733 10.88 42.28 10.88H40.66V19.04H42.28ZM62.2912 16.24C62.2912 16.56 62.2713 16.8933 62.2313 17.24H54.4913C54.5446 17.9333 54.7646 18.4667 55.1513 18.84C55.5513 19.2 56.0379 19.38 56.6113 19.38C57.4646 19.38 58.0579 19.02 58.3913 18.3H62.0313C61.8446 19.0333 61.5046 19.6933 61.0113 20.28C60.5313 20.8667 59.9246 21.3267 59.1913 21.66C58.4579 21.9933 57.6379 22.16 56.7313 22.16C55.6379 22.16 54.6646 21.9267 53.8113 21.46C52.9579 20.9933 52.2913 20.3267 51.8113 19.46C51.3313 18.5933 51.0913 17.58 51.0913 16.42C51.0913 15.26 51.3246 14.2467 51.7913 13.38C52.2713 12.5133 52.9379 11.8467 53.7913 11.38C54.6446 10.9133 55.6246 10.68 56.7313 10.68C57.8113 10.68 58.7713 10.9067 59.6113 11.36C60.4513 11.8133 61.1046 12.46 61.5713 13.3C62.0513 14.14 62.2912 15.12 62.2912 16.24ZM58.7913 15.34C58.7913 14.7533 58.5913 14.2867 58.1913 13.94C57.7913 13.5933 57.2913 13.42 56.6913 13.42C56.1179 13.42 55.6313 13.5867 55.2313 13.92C54.8446 14.2533 54.6046 14.7267 54.5113 15.34H58.7913ZM68.6355 22.16C67.6621 22.16 66.7955 21.9933 66.0355 21.66C65.2755 21.3267 64.6755 20.8733 64.2355 20.3C63.7955 19.7133 63.5488 19.06 63.4955 18.34H66.8755C66.9155 18.7267 67.0955 19.04 67.4155 19.28C67.7355 19.52 68.1288 19.64 68.5955 19.64C69.0221 19.64 69.3488 19.56 69.5755 19.4C69.8155 19.2267 69.9355 19.0067 69.9355 18.74C69.9355 18.42 69.7688 18.1867 69.4355 18.04C69.1021 17.88 68.5621 17.7067 67.8155 17.52C67.0155 17.3333 66.3488 17.14 65.8155 16.94C65.2821 16.7267 64.8221 16.4 64.4355 15.96C64.0488 15.5067 63.8555 14.9 63.8555 14.14C63.8555 13.5 64.0288 12.92 64.3755 12.4C64.7355 11.8667 65.2555 11.4467 65.9355 11.14C66.6288 10.8333 67.4488 10.68 68.3955 10.68C69.7955 10.68 70.8955 11.0267 71.6955 11.72C72.5088 12.4133 72.9755 13.3333 73.0955 14.48H69.9355C69.8821 14.0933 69.7088 13.7867 69.4155 13.56C69.1355 13.3333 68.7621 13.22 68.2955 13.22C67.8955 13.22 67.5888 13.3 67.3755 13.46C67.1621 13.6067 67.0555 13.8133 67.0555 14.08C67.0555 14.4 67.2221 14.64 67.5555 14.8C67.9021 14.96 68.4355 15.12 69.1555 15.28C69.9821 15.4933 70.6555 15.7067 71.1755 15.92C71.6955 16.12 72.1488 16.4533 72.5355 16.92C72.9355 17.3733 73.1421 17.9867 73.1555 18.76C73.1555 19.4133 72.9688 20 72.5955 20.52C72.2355 21.0267 71.7088 21.4267 71.0155 21.72C70.3355 22.0133 69.5421 22.16 68.6355 22.16ZM74.5678 16.4C74.5678 15.2533 74.7811 14.2467 75.2078 13.38C75.6478 12.5133 76.2411 11.8467 76.9878 11.38C77.7345 10.9133 78.5678 10.68 79.4878 10.68C80.2745 10.68 80.9611 10.84 81.5478 11.16C82.1478 11.48 82.6078 11.9 82.9278 12.42V10.84H86.3478V22H82.9278V20.42C82.5945 20.94 82.1278 21.36 81.5278 21.68C80.9411 22 80.2545 22.16 79.4678 22.16C78.5611 22.16 77.7345 21.9267 76.9878 21.46C76.2411 20.98 75.6478 20.3067 75.2078 19.44C74.7811 18.56 74.5678 17.5467 74.5678 16.4ZM82.9278 16.42C82.9278 15.5667 82.6878 14.8933 82.2078 14.4C81.7411 13.9067 81.1678 13.66 80.4878 13.66C79.8078 13.66 79.2278 13.9067 78.7478 14.4C78.2811 14.88 78.0478 15.5467 78.0478 16.4C78.0478 17.2533 78.2811 17.9333 78.7478 18.44C79.2278 18.9333 79.8078 19.18 80.4878 19.18C81.1678 19.18 81.7411 18.9333 82.2078 18.44C82.6878 17.9467 82.9278 17.2733 82.9278 16.42ZM94.422 13.68H92.582V22H89.162V13.68H87.922V10.84H89.162V10.52C89.162 9.14667 89.5554 8.10667 90.342 7.4C91.1287 6.68 92.282 6.32 93.802 6.32C94.0554 6.32 94.242 6.32667 94.362 6.34V9.24C93.7087 9.2 93.2487 9.29333 92.982 9.52C92.7154 9.74667 92.582 10.1533 92.582 10.74V10.84H94.422V13.68ZM97.7491 9.68C97.1491 9.68 96.6557 9.50667 96.2691 9.16C95.8957 8.8 95.7091 8.36 95.7091 7.84C95.7091 7.30667 95.8957 6.86667 96.2691 6.52C96.6557 6.16 97.1491 5.98 97.7491 5.98C98.3357 5.98 98.8157 6.16 99.1891 6.52C99.5757 6.86667 99.7691 7.30667 99.7691 7.84C99.7691 8.36 99.5757 8.8 99.1891 9.16C98.8157 9.50667 98.3357 9.68 97.7491 9.68ZM99.4491 10.84V22H96.0291V10.84H99.4491ZM107.008 22.16C105.914 22.16 104.928 21.9267 104.048 21.46C103.181 20.9933 102.494 20.3267 101.988 19.46C101.494 18.5933 101.248 17.58 101.248 16.42C101.248 15.2733 101.501 14.2667 102.007 13.4C102.514 12.52 103.208 11.8467 104.088 11.38C104.968 10.9133 105.954 10.68 107.048 10.68C108.141 10.68 109.128 10.9133 110.008 11.38C110.888 11.8467 111.581 12.52 112.088 13.4C112.594 14.2667 112.848 15.2733 112.848 16.42C112.848 17.5667 112.588 18.58 112.068 19.46C111.561 20.3267 110.861 20.9933 109.968 21.46C109.088 21.9267 108.101 22.16 107.008 22.16ZM107.008 19.2C107.661 19.2 108.214 18.96 108.668 18.48C109.134 18 109.368 17.3133 109.368 16.42C109.368 15.5267 109.141 14.84 108.688 14.36C108.248 13.88 107.701 13.64 107.048 13.64C106.381 13.64 105.828 13.88 105.388 14.36C104.948 14.8267 104.728 15.5133 104.728 16.42C104.728 17.3133 104.941 18 105.368 18.48C105.808 18.96 106.354 19.2 107.008 19.2ZM118.32 14.96C118.32 13.5733 118.62 12.34 119.22 11.26C119.82 10.1667 120.653 9.32 121.72 8.72C122.8 8.10667 124.02 7.8 125.38 7.8C127.047 7.8 128.473 8.24 129.66 9.12C130.847 10 131.64 11.2 132.04 12.72H128.28C128 12.1333 127.6 11.6867 127.08 11.38C126.573 11.0733 125.993 10.92 125.34 10.92C124.287 10.92 123.433 11.2867 122.78 12.02C122.127 12.7533 121.8 13.7333 121.8 14.96C121.8 16.1867 122.127 17.1667 122.78 17.9C123.433 18.6333 124.287 19 125.34 19C125.993 19 126.573 18.8467 127.08 18.54C127.6 18.2333 128 17.7867 128.28 17.2H132.04C131.64 18.72 130.847 19.92 129.66 20.8C128.473 21.6667 127.047 22.1 125.38 22.1C124.02 22.1 122.8 21.8 121.72 21.2C120.653 20.5867 119.82 19.74 119.22 18.66C118.62 17.58 118.32 16.3467 118.32 14.96ZM137.555 12.7C137.955 12.0867 138.455 11.6067 139.055 11.26C139.655 10.9 140.321 10.72 141.055 10.72V14.34H140.115C139.261 14.34 138.621 14.5267 138.195 14.9C137.768 15.26 137.555 15.9 137.555 16.82V22H134.135V10.84H137.555V12.7ZM144.409 9.68C143.809 9.68 143.316 9.50667 142.929 9.16C142.556 8.8 142.369 8.36 142.369 7.84C142.369 7.30667 142.556 6.86667 142.929 6.52C143.316 6.16 143.809 5.98 144.409 5.98C144.996 5.98 145.476 6.16 145.849 6.52C146.236 6.86667 146.429 7.30667 146.429 7.84C146.429 8.36 146.236 8.8 145.849 9.16C145.476 9.50667 144.996 9.68 144.409 9.68ZM146.109 10.84V22H142.689V10.84H146.109ZM152.008 12.42C152.341 11.9 152.801 11.48 153.388 11.16C153.974 10.84 154.661 10.68 155.448 10.68C156.368 10.68 157.201 10.9133 157.948 11.38C158.694 11.8467 159.281 12.5133 159.708 13.38C160.148 14.2467 160.368 15.2533 160.368 16.4C160.368 17.5467 160.148 18.56 159.708 19.44C159.281 20.3067 158.694 20.98 157.948 21.46C157.201 21.9267 156.368 22.16 155.448 22.16C154.674 22.16 153.988 22 153.388 21.68C152.801 21.36 152.341 20.9467 152.008 20.44V27.32H148.588V10.84H152.008V12.42ZM156.888 16.4C156.888 15.5467 156.648 14.88 156.168 14.4C155.701 13.9067 155.121 13.66 154.428 13.66C153.748 13.66 153.168 13.9067 152.688 14.4C152.221 14.8933 151.988 15.5667 151.988 16.42C151.988 17.2733 152.221 17.9467 152.688 18.44C153.168 18.9333 153.748 19.18 154.428 19.18C155.108 19.18 155.688 18.9333 156.168 18.44C156.648 17.9333 156.888 17.2533 156.888 16.4ZM168.382 19.1V22H166.642C165.402 22 164.435 21.7 163.742 21.1C163.049 20.4867 162.702 19.4933 162.702 18.12V13.68H161.342V10.84H162.702V8.12H166.122V10.84H168.362V13.68H166.122V18.16C166.122 18.4933 166.202 18.7333 166.362 18.88C166.522 19.0267 166.789 19.1 167.162 19.1H168.382ZM175.367 22.16C174.274 22.16 173.287 21.9267 172.407 21.46C171.54 20.9933 170.854 20.3267 170.347 19.46C169.854 18.5933 169.607 17.58 169.607 16.42C169.607 15.2733 169.86 14.2667 170.367 13.4C170.874 12.52 171.567 11.8467 172.447 11.38C173.327 10.9133 174.314 10.68 175.407 10.68C176.5 10.68 177.487 10.9133 178.367 11.38C179.247 11.8467 179.94 12.52 180.447 13.4C180.954 14.2667 181.207 15.2733 181.207 16.42C181.207 17.5667 180.947 18.58 180.427 19.46C179.92 20.3267 179.22 20.9933 178.327 21.46C177.447 21.9267 176.46 22.16 175.367 22.16ZM175.367 19.2C176.02 19.2 176.574 18.96 177.027 18.48C177.494 18 177.727 17.3133 177.727 16.42C177.727 15.5267 177.5 14.84 177.047 14.36C176.607 13.88 176.06 13.64 175.407 13.64C174.74 13.64 174.187 13.88 173.747 14.36C173.307 14.8267 173.087 15.5133 173.087 16.42C173.087 17.3133 173.3 18 173.727 18.48C174.167 18.96 174.714 19.2 175.367 19.2ZM189.821 10.72C191.128 10.72 192.168 11.1467 192.941 12C193.728 12.84 194.121 14 194.121 15.48V22H190.721V15.94C190.721 15.1933 190.528 14.6133 190.141 14.2C189.755 13.7867 189.235 13.58 188.581 13.58C187.928 13.58 187.408 13.7867 187.021 14.2C186.635 14.6133 186.441 15.1933 186.441 15.94V22H183.021V10.84H186.441V12.32C186.788 11.8267 187.255 11.44 187.841 11.16C188.428 10.8667 189.088 10.72 189.821 10.72ZM201.578 22.16C200.484 22.16 199.498 21.9267 198.618 21.46C197.751 20.9933 197.064 20.3267 196.558 19.46C196.064 18.5933 195.818 17.58 195.818 16.42C195.818 15.2733 196.071 14.2667 196.578 13.4C197.084 12.52 197.778 11.8467 198.658 11.38C199.538 10.9133 200.524 10.68 201.618 10.68C202.711 10.68 203.698 10.9133 204.578 11.38C205.458 11.8467 206.151 12.52 206.658 13.4C207.164 14.2667 207.418 15.2733 207.418 16.42C207.418 17.5667 207.158 18.58 206.638 19.46C206.131 20.3267 205.431 20.9933 204.538 21.46C203.658 21.9267 202.671 22.16 201.578 22.16ZM201.578 19.2C202.231 19.2 202.784 18.96 203.238 18.48C203.704 18 203.938 17.3133 203.938 16.42C203.938 15.5267 203.711 14.84 203.258 14.36C202.818 13.88 202.271 13.64 201.618 13.64C200.951 13.64 200.398 13.88 199.958 14.36C199.518 14.8267 199.298 15.5133 199.298 16.42C199.298 17.3133 199.511 18 199.938 18.48C200.378 18.96 200.924 19.2 201.578 19.2ZM223.472 10.72C224.859 10.72 225.959 11.14 226.772 11.98C227.599 12.82 228.012 13.9867 228.012 15.48V22H224.612V15.94C224.612 15.22 224.419 14.6667 224.032 14.28C223.659 13.88 223.139 13.68 222.472 13.68C221.806 13.68 221.279 13.88 220.892 14.28C220.519 14.6667 220.332 15.22 220.332 15.94V22H216.932V15.94C216.932 15.22 216.739 14.6667 216.352 14.28C215.979 13.88 215.459 13.68 214.792 13.68C214.126 13.68 213.599 13.88 213.212 14.28C212.839 14.6667 212.652 15.22 212.652 15.94V22H209.232V10.84H212.652V12.24C212.999 11.7733 213.452 11.4067 214.012 11.14C214.572 10.86 215.206 10.72 215.912 10.72C216.752 10.72 217.499 10.9 218.152 11.26C218.819 11.62 219.339 12.1333 219.712 12.8C220.099 12.1867 220.626 11.6867 221.292 11.3C221.959 10.9133 222.686 10.72 223.472 10.72ZM232.124 9.68C231.524 9.68 231.031 9.50667 230.644 9.16C230.271 8.8 230.084 8.36 230.084 7.84C230.084 7.30667 230.271 6.86667 230.644 6.52C231.031 6.16 231.524 5.98 232.124 5.98C232.711 5.98 233.191 6.16 233.564 6.52C233.951 6.86667 234.144 7.30667 234.144 7.84C234.144 8.36 233.951 8.8 233.564 9.16C233.191 9.50667 232.711 9.68 232.124 9.68ZM233.824 10.84V22H230.404V10.84H233.824ZM235.623 16.4C235.623 15.2533 235.836 14.2467 236.263 13.38C236.703 12.5133 237.296 11.8467 238.043 11.38C238.789 10.9133 239.623 10.68 240.543 10.68C241.329 10.68 242.016 10.84 242.603 11.16C243.203 11.48 243.663 11.9 243.983 12.42V10.84H247.403V22H243.983V20.42C243.649 20.94 243.183 21.36 242.583 21.68C241.996 22 241.309 22.16 240.523 22.16C239.616 22.16 238.789 21.9267 238.043 21.46C237.296 20.98 236.703 20.3067 236.263 19.44C235.836 18.56 235.623 17.5467 235.623 16.4ZM243.983 16.42C243.983 15.5667 243.743 14.8933 243.263 14.4C242.796 13.9067 242.223 13.66 241.543 13.66C240.863 13.66 240.283 13.9067 239.803 14.4C239.336 14.88 239.103 15.5467 239.103 16.4C239.103 17.2533 239.336 17.9333 239.803 18.44C240.283 18.9333 240.863 19.18 241.543 19.18C242.223 19.18 242.796 18.9333 243.263 18.44C243.743 17.9467 243.983 17.2733 243.983 16.42Z" fill="#2A2B30"/>
<path d="M25.605 4.395L23.49 6.51C25.65 8.685 27 11.685 27 15C27 18.1826 25.7357 21.2348 23.4853 23.4853C21.2348 25.7357 18.1826 27 15 27C11.8174 27 8.76516 25.7357 6.51472 23.4853C4.26428 21.2348 3 18.1826 3 15C3 8.88 7.575 3.84 13.5 3.105V6.135C9.24 6.855 6 10.545 6 15C6 17.3869 6.94821 19.6761 8.63604 21.364C10.3239 23.0518 12.6131 24 15 24C17.3869 24 19.6761 23.0518 21.364 21.364C23.0518 19.6761 24 17.3869 24 15C24 12.51 22.995 10.26 21.36 8.64L19.245 10.755C20.325 11.85 21 13.35 21 15C21 16.5913 20.3679 18.1174 19.2426 19.2426C18.1174 20.3679 16.5913 21 15 21C13.4087 21 11.8826 20.3679 10.7574 19.2426C9.63214 18.1174 9 16.5913 9 15C9 12.21 10.92 9.885 13.5 9.21V12.42C12.6 12.945 12 13.89 12 15C12 15.7956 12.3161 16.5587 12.8787 17.1213C13.4413 17.6839 14.2044 18 15 18C15.7956 18 16.5587 17.6839 17.1213 17.1213C17.6839 16.5587 18 15.7956 18 15C18 13.89 17.4 12.93 16.5 12.42V0H15C13.0302 0 11.0796 0.387987 9.25975 1.14181C7.43986 1.89563 5.78628 3.00052 4.3934 4.3934C1.58035 7.20644 0 11.0218 0 15C0 18.9782 1.58035 22.7936 4.3934 25.6066C5.78628 26.9995 7.43986 28.1044 9.25975 28.8582C11.0796 29.612 13.0302 30 15 30C18.9782 30 22.7936 28.4196 25.6066 25.6066C28.4196 22.7936 30 18.9782 30 15C30 10.86 28.32 7.11 25.605 4.395Z" fill="#2A2B30"/>
</svg>
