<svg width="700" height="425" viewBox="0 0 700 425" fill="none" xmlns="http://www.w3.org/2000/svg">
<path d="M607.345 101.279L673.252 118.17C678.059 119.403 682.556 121.627 686.452 124.699C690.348 127.771 693.559 131.624 695.877 136.01C698.196 140.396 699.571 145.218 699.914 150.167C700.258 155.115 699.562 160.081 697.872 164.745L652.017 291.323L495.383 232.168L558.614 93.5402L607.345 101.279Z" fill="url(#paint0_linear)"/>
<path d="M525.213 152.806C518.421 162.318 512.848 172.642 508.623 183.538C501.987 201.038 482.753 227.415 482.753 227.415L503.967 235.43C503.967 235.43 523.222 202.785 525.213 194.582C527.204 186.379 525.213 152.806 525.213 152.806Z" fill="url(#paint1_linear)"/>
<path d="M503.987 235.419L580.391 264.272L626.677 281.75C626.677 281.75 642.161 279.793 643.267 270.396C644.373 261 639.949 180.299 630.272 162.059C620.594 143.818 596.538 139.484 596.538 139.484C596.538 139.484 578.013 154.044 566.953 152.75C555.892 151.457 559.675 139.484 559.675 139.484L547.597 136.986L533.606 139.639L525.19 152.795L503.987 235.419Z" fill="url(#paint2_linear)"/>
<path d="M688.239 304.788C662.668 445.693 320.821 429.553 179.583 417.205C102.937 410.495 7.93012 381.31 0.0774211 276.609C0.0774211 276.27 0.051614 275.931 0 275.592V260.325L366.577 183.527L688.239 304.788Z" fill="url(#paint3_linear)"/>
<g style="mix-blend-mode:multiply" opacity="0.5">
<path d="M194.072 379.441C212.892 379.441 228.149 371.799 228.149 362.373C228.149 352.946 212.892 345.304 194.072 345.304C175.253 345.304 159.996 352.946 159.996 362.373C159.996 371.799 175.253 379.441 194.072 379.441Z" fill="#BFC3DB"/>
</g>
<g style="mix-blend-mode:multiply" opacity="0.5">
<path d="M381.022 265.333L377.792 268.097L495.383 319.922L578.124 280.589L381.022 265.333Z" fill="#BBBFD9"/>
</g>
<path d="M366.788 172.616L381.022 260.325L497.751 307.707L479.347 209.042L366.788 172.616Z" fill="url(#paint4_linear)"/>
<path d="M605.686 209.042L607.345 254.09L580.403 264.272L572.141 261.154L600.433 251.061C600.433 251.061 604.304 209.616 605.686 209.042Z" fill="url(#paint5_linear)"/>
<path d="M497.75 307.706L578.124 274.177L484.466 236.457L497.75 307.706Z" fill="url(#paint6_linear)"/>
<path d="M594.858 72.0054C592.547 76.9027 586.685 82.1096 586.486 83.6904C584.064 88.7204 578.655 99.6869 575.094 105.148C570.382 112.378 556.292 113.572 551.204 106.486C546.116 99.3994 534.614 90.5887 534.614 90.5887C534.614 90.5887 527.585 88.5355 528.896 82.4634C529.504 79.6444 542.566 75.0455 543.473 69.3302C543.893 66.7102 543.141 64.1565 542.566 61.4812C541.891 58.3416 541.46 55.0252 543.407 51.1891V51.0896C544.513 48.8787 548.992 48.7791 554.843 49.8846C556.369 50.161 557.984 50.5369 559.665 50.9901C572.395 54.2513 588.632 61.1938 593.598 64.6871C596.329 66.5443 596.219 69.2196 594.858 72.0054Z" fill="url(#paint7_linear)"/>
<path d="M601.495 68.6997L592.99 83.4247L580.669 80.2741L577.008 67.4062L550.464 60.4859L542.611 61.5361C541.936 58.3965 541.505 55.0801 543.451 51.2441L554.932 49.9396L559.754 51.0451L590.479 57.9101L601.495 68.6997Z" fill="url(#paint8_linear)"/>
<path d="M596.728 90.467C592.868 91.4288 587.957 93.6066 585.668 97.9954C583.847 101.575 583.146 105.62 583.655 109.603C583.323 109.47 583.124 109.371 583.124 109.371C583.124 109.371 578.059 126.215 573.546 129.929C571.423 131.676 563.249 131.171 554.379 130.442C544.358 129.679 533.74 127.921 531.02 126.495C525.899 123.786 528.31 114.755 531.02 111.14C531.72 110.184 532.258 109.12 532.612 107.989C536.561 109.515 542.39 111.394 543.374 109.636C544.48 107.602 537.457 102.329 532.612 99.6868C532.445 99.2499 532.214 98.8402 531.927 98.4708C529.814 95.7623 534.636 90.5334 534.636 90.5334C534.636 90.5334 546.084 99.3773 551.227 106.43C556.37 113.483 570.405 112.323 575.116 105.093C578.678 99.6316 584.086 88.6651 586.508 83.6351C586.508 83.8894 586.508 84.0221 586.508 84.0221C586.508 84.0221 591.497 89.1183 596.728 90.467Z" fill="url(#paint9_linear)"/>
<path d="M543.374 109.669C542.394 111.965 536.572 109.548 532.613 108.022C533.542 105.344 533.542 102.321 532.613 99.6434C537.457 102.274 544.502 107.635 543.374 109.669Z" fill="url(#paint10_linear)"/>
<path d="M600.642 106.496C600.01 107.858 599.024 109.026 597.788 109.879C597.534 111.394 597.191 113.472 596.848 115.871L596.14 121.045C595.3 127.678 594.658 135.195 595.222 139.573C596.428 148.803 564.254 159.04 557.883 155.735C553.459 153.402 553.603 141.286 554.101 134.311C554.211 132.697 554.344 131.359 554.432 130.486C563.281 131.171 571.719 131.083 573.843 129.38C575.143 128.136 576.214 126.673 577.006 125.058C579.507 120.029 580.327 114.95 581.933 109.57C581.933 109.57 583.089 101.676 584.992 97.9842C586.148 95.9294 587.701 94.1253 589.562 92.6771C591.423 91.2289 593.554 90.1656 595.831 89.5493C596.008 89.5493 598.043 89.5493 598.242 89.5493C603.606 90.5995 605.066 97.3319 600.642 106.496Z" fill="url(#paint11_linear)"/>
<path d="M563.591 11.7337L563.127 13.8673L558.703 12.4191L557.597 13.3478L556.325 13.2372V11.7337L543.484 9.88757V12.3196L537.954 11.2805C537.954 11.2805 536.682 13.4915 536.217 12.9608C536.161 12.8916 536.091 12.8357 536.01 12.7974C535.93 12.759 535.842 12.7391 535.753 12.7391C535.664 12.7391 535.576 12.759 535.495 12.7974C535.415 12.8357 535.344 12.8916 535.288 12.9608V13.9447L545.242 16.023L544.778 18.5656L550.562 19.6048C550.562 19.6048 554.146 18.2229 553.969 19.6048C553.792 20.9867 549.633 20.2239 548.826 20.2239C548.019 20.2239 548.019 22.5012 548.019 22.5012C548.019 22.5012 544.778 21.8047 544.313 21.8047C543.849 21.8047 544.081 22.5012 542.002 22.5012C539.923 22.5012 539.69 21.3957 539.69 21.3957L530.212 21.1636V22.5454C530.212 22.5454 524.781 22.3133 524.195 23.474C523.609 24.6348 531.594 23.474 531.594 23.474V24.9775L535.41 25.9061C535.41 25.9061 526.971 30.3281 524.881 33.9983C525.082 33.9868 525.283 34.015 525.472 34.0814C525.662 34.1478 525.837 34.2511 525.987 34.3852C525.987 34.3852 521.209 38.3539 522.669 42.8643C523.52 41.6261 523.907 41.1287 523.907 41.1287L531.959 42.1678L531.384 44.0582L523.399 45.7938V48.0048C523.399 48.0048 517.692 48.7344 518.046 51.0449C518.4 53.3554 525.334 50.3484 525.334 50.3484C525.218 51.3275 525.466 52.3153 526.031 53.1232C525.334 54.5493 520.822 61.6797 520.822 61.6797H522.326C522.326 61.6797 518.742 68.3126 519.66 71.8502C521.029 67.935 522.813 64.1772 524.98 60.6405H525.677L532.313 53.1232L551.702 55.7875L570.902 35.8887L573.523 13.5689L563.591 11.7337ZM548.273 37.6243L541.449 38.1991L540.586 36.1208C540.586 36.1208 530.875 37.569 530.411 36.9831C529.946 36.3972 530.411 38.8293 530.411 38.8293L524.449 38.4202L528.088 33.5671L529.194 34.4294L534.791 31.533L537.224 30.2728L537.511 31.7762L534.282 32.738L533.176 33.2576L533.463 34.9379L541.792 33.6666L541.969 34.4736H540.918C540.918 34.4736 541.615 36.0876 542.024 36.0876C542.433 36.0876 550.584 35.6786 550.584 35.6786L548.273 37.6243Z" fill="#222222"/>
<path d="M609.801 32.3626L607.666 32.86L607.091 28.2723L605.764 27.62L605.321 26.4261L606.682 25.7849L602.855 13.4035L600.643 14.4426L599.205 8.9815C599.205 8.9815 596.672 8.77147 596.993 8.13029C597.032 8.05 597.052 7.96203 597.053 7.87286C597.053 7.78369 597.033 7.69558 596.995 7.61499C596.957 7.5344 596.901 7.46339 596.832 7.40717C596.763 7.35095 596.682 7.31095 596.595 7.29011L595.71 7.7102L598.099 17.5822L595.6 18.2565L597.137 23.9277C597.137 23.9277 599.924 26.5698 598.597 27.012C597.27 27.4542 596.175 23.3639 595.832 22.5901C595.489 21.8162 593.432 22.8333 593.432 22.8333C593.432 22.8333 592.669 19.6163 592.47 19.1962C592.27 18.7761 591.74 19.2847 590.855 17.4053C589.97 15.526 590.855 14.8185 590.855 14.8185L586.995 6.20673L585.745 6.80369C585.745 6.80369 583.621 1.79585 582.327 1.77374C581.033 1.75163 585.502 8.40666 585.502 8.40666L584.141 9.04784L584.938 12.8949C584.938 12.8949 577.35 7.15746 573.114 6.87003C573.213 7.04678 573.276 7.24141 573.299 7.4426C573.321 7.64378 573.304 7.84749 573.247 8.04185C573.247 8.04185 567.606 5.4329 564.178 8.7162C565.66 8.94835 566.279 9.08101 566.279 9.08101L568.801 16.8194L566.843 17.1068L561.855 10.6287L559.886 11.5241C559.886 11.5241 556.779 6.68209 554.832 7.99762C552.885 9.31315 558.581 14.2768 558.581 14.2768C557.646 14.5892 556.859 15.2345 556.369 16.0898C554.788 16.0898 546.415 15.0617 546.415 15.0617L547.057 16.4214C547.057 16.4214 539.569 16.0124 536.727 18.3892C540.855 17.947 545.019 17.947 549.147 18.3892L549.446 19.0193L559.068 21.7499L573.933 44.1692L591.242 49.177L612.533 41.9693L609.801 32.3626ZM579.828 29.6431L576.377 23.7287L577.881 22.0484C577.881 22.0484 572.407 13.9009 572.727 13.2045C573.048 12.508 571.057 14.0004 571.057 14.0004L568.845 8.47299L574.795 9.67796L574.486 11.0377L579.507 14.8517L581.719 16.5099L580.48 17.4164L578.18 15.0506L577.218 14.2326L575.824 15.2164L580.547 22.1921L579.894 22.7006L579.452 21.7609C579.452 21.7609 578.29 23.0765 578.456 23.4523C578.622 23.8282 582.493 31.0028 582.493 31.0028L579.828 29.6431Z" fill="#222222"/>
<path d="M600.289 29.4885L605.476 27.4875L606.582 29.4885C606.582 29.4885 612.919 27.7197 613.848 28.4935C614.777 29.2674 614.545 29.9528 614.545 29.9528L621.922 30.8703L621.115 31.9095C621.115 31.9095 623.415 33.6341 623.072 33.6341C622.029 33.7325 620.991 33.8875 619.965 34.0984C619.121 34.1564 618.275 34.1564 617.432 34.0984L616.857 35.2039L615.01 35.7787C615.01 35.7787 619.854 36.0109 620.429 37.7354C621.004 39.46 628.038 39.0067 627.463 40.3886C627.203 41.1311 626.72 41.7757 626.081 42.2348C626.081 42.2348 631.733 43.8488 631.5 44.6558C631.268 45.4628 629.653 45.7613 629.653 45.7613L626.335 45.297C626.206 45.6545 626.15 46.034 626.169 46.4135C626.188 46.793 626.282 47.165 626.446 47.5079C627.575 48.4921 628.814 49.3416 630.14 50.0395L630.029 51.145C630.029 51.145 632.451 52.6485 632.241 53.6766L632.009 54.7157C632.009 54.7157 634.663 57.4795 634.542 58.1759C634.42 58.8724 632.816 58.9829 632.816 58.9829C632.816 58.9829 632.927 60.0221 632.241 60.0884C631.598 60.081 630.965 59.9219 630.394 59.6241L628.89 60.0995L627.187 58.8724C627.187 58.8724 632.949 67.1746 631.688 67.6278L630.416 68.0921C630.416 68.0921 634.221 75.4657 632.374 75.4657C630.527 75.4657 630.162 74.9683 630.162 74.9683L628.293 70.3252L626.567 70.9001L624.278 67.0088L617.421 67.2409L612.521 57.2915L600.289 29.4885Z" fill="#222222"/>
<path d="M611.183 44.3679C610.243 43.8925 611.183 41.5378 612.123 40.1117C612.533 39.5894 612.861 39.008 613.097 38.3872C612.345 39.2937 611.869 39.9127 611.869 39.9127C611.869 39.9127 611.604 36.5299 611.438 33.2798C610.875 33.2363 610.316 33.1476 609.768 33.0145C599.625 30.9914 590.368 27.8961 580.923 25.6962C580.671 25.6857 580.424 25.6295 580.193 25.5303C575.144 24.3337 570.006 23.5535 564.83 23.1978C563.647 34.4958 557.553 45.4402 551.646 55.6107C559.953 58.1533 574.873 62.2436 574.873 62.2436L596.706 67.6936L574.873 61L573.225 70.38L583.5 73.5V89.7481L590.136 92.1249C590.136 92.1249 595.367 88.0015 599.172 91.1963C602.977 94.3912 601.495 104.462 596.728 110.332C596.827 113.888 596.508 117.442 595.776 120.923C595.776 120.923 610.619 94.4907 616.636 88.3884C622.653 82.2861 624.599 74.6361 624.666 71.4634C624.666 69.4293 627.143 65.6264 629.278 62.531C622.763 57.0589 618.339 49.8953 611.183 44.3679Z" fill="#222222"/>
<path d="M368.191 1C368.191 1 382.26 8.25193 393.873 1.77385" stroke="white" stroke-miterlimit="10"/>
<path d="M497.75 307.706V314.03L578.125 280.589V274.177L497.75 307.706Z" fill="#C8CCE0"/>
<path d="M497.75 314.03L381.021 265.333V260.325L497.75 307.706V314.03Z" fill="#C8CCE0"/>
<path d="M420.075 246.65C425.597 246.65 430.074 242.176 430.074 236.656C430.074 231.137 425.597 226.663 420.075 226.663C414.554 226.663 410.077 231.137 410.077 236.656C410.077 242.176 414.554 246.65 420.075 246.65Z" fill="#E6E6E6"/>
<path d="M548.251 147.477C548.251 147.477 549.445 159.881 556.546 162.125C567.883 165.718 595.776 150.871 595.776 150.871" stroke="white" stroke-miterlimit="10"/>
<path d="M391.473 350.82L300.227 368.32L250.456 322.078L306.83 312.648L324.006 344.187L378.123 340.484L391.473 350.82Z" fill="url(#paint12_linear)"/>
<path d="M394.039 348.256L302.793 365.756L253.022 319.513L309.395 310.083L326.572 341.623L380.689 337.919L394.039 348.256Z" fill="#BE1C2A"/>
<path d="M228.238 356.978C228.238 369.392 215.121 379.441 198.94 379.441C182.759 379.441 169.63 369.381 169.63 356.978C169.676 352.71 171.183 348.586 173.9 345.293V345.348C173.9 348.665 185.115 351.307 198.951 351.307C212.787 351.307 224.002 348.642 224.002 345.348C226.698 348.629 228.192 352.732 228.238 356.978Z" fill="url(#paint13_linear)"/>
<path d="M223.978 345.304C223.978 348.621 212.763 351.263 198.927 351.263C185.09 351.263 173.875 348.599 173.875 345.304V345.249C173.875 344.398 174.694 343.591 176.088 342.85C180.014 340.783 188.762 339.346 198.927 339.346C209.091 339.346 217.828 340.783 221.766 342.85C223.159 343.624 223.945 344.486 223.978 345.304Z" fill="url(#paint14_linear)"/>
<path d="M199.869 347.891C198.862 347.891 197.59 347.891 196.141 347.747H195.887C188.366 347.117 176.089 344.331 168.701 333.044C167.928 331.864 167.234 330.634 166.622 329.363C165.372 326.78 164.415 324.066 163.768 321.271C161.202 310.315 147.366 302.831 142.644 301.693C144.236 296.01 164.167 298.575 176.41 305.949C179.724 307.763 182.525 310.388 184.55 313.577L186.077 320.099C186.499 323.677 187.419 327.178 188.809 330.502C189.501 332.201 190.283 333.861 191.153 335.476C192.827 338.601 194.759 341.581 196.927 344.387C198.685 346.631 199.869 347.891 199.869 347.891Z" fill="url(#paint15_linear)"/>
<path d="M195.024 345.348C195.024 345.348 179.739 336.438 176.808 324.344C173.877 312.25 164.52 304.014 154.843 302.908" stroke="white" stroke-width="0.68" stroke-miterlimit="10"/>
<path d="M199.868 347.88C199.868 347.88 191.285 312.957 201.549 303.903C211.813 294.85 226.6 291.5 239.297 298.376C223.979 299.294 219.709 309.74 220.716 319.248C221.623 327.904 210.131 350.29 199.868 347.88Z" fill="#BE1C2A"/>
<path d="M199.868 347.88C215.706 333.763 190.467 311.133 228.237 297.458" stroke="white" stroke-width="0.65" stroke-miterlimit="10"/>
<path d="M186.131 320.165C180.059 321.27 164.221 314.892 164.542 310.437C164.841 306.357 177.914 309.497 184.605 313.643L186.131 320.165Z" fill="url(#paint16_linear)"/>
<path d="M191.207 335.52C186.993 337.499 174.186 335.885 168.689 333.022C167.273 332.292 166.355 331.474 166.178 330.623C166.128 330.391 166.143 330.15 166.221 329.925C166.299 329.701 166.437 329.503 166.62 329.352C169.253 326.898 182.326 327.892 188.862 330.557C189.555 332.252 190.338 333.909 191.207 335.52Z" fill="url(#paint17_linear)"/>
<path d="M171.775 281.937C174.629 277.106 195.101 297.027 191.518 301.394C187.934 305.76 169.055 286.536 171.775 281.937Z" fill="url(#paint18_linear)"/>
<path d="M166.19 309.255C166.599 303.628 191.318 311.72 190.046 317.269C188.774 322.819 165.792 314.638 166.19 309.255Z" fill="url(#paint19_linear)"/>
<path d="M212.034 284.359C216.458 287.786 194.791 306.391 190.942 302.268C187.093 298.144 207.864 281.087 212.034 284.359Z" fill="url(#paint20_linear)"/>
<path d="M209.976 308.149C213.659 312.305 192.789 322.763 189.648 318.098C186.507 313.433 206.47 304.191 209.976 308.149Z" fill="url(#paint21_linear)"/>
<path d="M191.263 280.368C191.582 289.372 191.153 298.387 189.98 307.319C188.066 319.878 192.888 341.136 200.719 347.935" stroke="url(#paint22_linear)" stroke-width="0.98" stroke-miterlimit="10"/>
<path d="M166.18 329.628C165.074 324.466 192.348 327.417 192.58 332.746C192.812 338.074 167.208 334.537 166.18 329.628Z" fill="url(#paint23_linear)"/>
<path d="M210.951 321.193C213.771 325.969 194.25 337.886 191.983 332.679C189.715 327.472 208.252 316.65 210.951 321.193Z" fill="url(#paint24_linear)"/>
<path d="M198.175 259.662C203.705 260.06 196.56 287.763 191.119 286.481C185.677 285.198 192.933 259.286 198.175 259.662Z" fill="url(#paint25_linear)"/>
<path d="M596.727 110.377L596.086 121.033V121.122L595.698 122.128C580.458 134.377 565.372 135.582 554.079 134.288C554.19 132.674 554.322 131.337 554.411 130.463C563.259 131.149 571.698 131.06 573.821 129.358C575.121 128.114 576.192 126.65 576.985 125.035C584.91 122.281 591.8 117.165 596.727 110.377Z" fill="url(#paint26_linear)"/>
<g style="mix-blend-mode:multiply" opacity="0.5">
<path d="M430.062 337.632L379.086 341.114L324.969 344.818L307.792 313.278L301.189 301.151L381.929 295.071L430.062 337.632Z" fill="#BFC3DB"/>
</g>
<path d="M431.666 334.437L380.69 337.919L326.573 341.623L309.396 310.083L302.793 297.956L383.532 291.876L431.666 334.437Z" fill="url(#paint27_linear)"/>
<g style="mix-blend-mode:multiply" opacity="0.5">
<path d="M318.927 249.839C337.747 249.839 353.003 242.197 353.003 232.77C353.003 223.343 337.747 215.701 318.927 215.701C300.107 215.701 284.851 223.343 284.851 232.77C284.851 242.197 300.107 249.839 318.927 249.839Z" fill="#BFC3DB"/>
</g>
<path d="M356.974 234.837C356.974 241.834 342.109 247.516 323.794 247.516C305.478 247.516 290.613 241.845 290.613 234.837C290.613 218.1 305.478 222.157 323.794 222.157C342.109 222.157 356.974 218.1 356.974 234.837Z" fill="#2A465E"/>
<path d="M323.783 242.94C342.114 242.94 356.974 237.263 356.974 230.26C356.974 223.257 342.114 217.58 323.783 217.58C305.452 217.58 290.591 223.257 290.591 230.26C290.591 237.263 305.452 242.94 323.783 242.94Z" fill="url(#paint28_linear)"/>
<path d="M323.782 230.26L297.371 185.3L325.53 137.665" stroke="url(#paint29_linear)" stroke-width="4.15" stroke-miterlimit="10"/>
<path d="M367.625 136.736L338.128 164.594L317.843 138.626C315.183 135.237 313.887 130.975 314.21 126.68C314.534 122.384 316.453 118.364 319.591 115.411C322.715 112.464 326.826 110.787 331.12 110.707C335.415 110.627 339.586 112.151 342.817 114.98L367.625 136.736Z" fill="url(#paint30_linear)"/>
<defs>
<linearGradient id="paint0_linear" x1="676.294" y1="215.973" x2="535.299" y2="152.91" gradientUnits="userSpaceOnUse">
<stop offset="0.01" stop-color="#BBBFD9"/>
<stop offset="0.29" stop-color="#CACDE2"/>
<stop offset="0.84" stop-color="#F2F3F8"/>
<stop offset="1" stop-color="white"/>
</linearGradient>
<linearGradient id="paint1_linear" x1="527.624" y1="204.454" x2="499.085" y2="187.108" gradientUnits="userSpaceOnUse">
<stop offset="0.32" stop-color="#9C9C9C"/>
<stop offset="0.5" stop-color="#ABABAB"/>
<stop offset="0.86" stop-color="#D3D3D3"/>
<stop offset="0.91" stop-color="#D9D9D9"/>
</linearGradient>
<linearGradient id="paint2_linear" x1="503.987" y1="209.373" x2="643.455" y2="209.373" gradientUnits="userSpaceOnUse">
<stop offset="0.09" stop-color="#D9D9D9"/>
<stop offset="0.12" stop-color="#D6D6D6"/>
<stop offset="0.7" stop-color="#AEAEAE"/>
<stop offset="1" stop-color="#9F9F9F"/>
</linearGradient>
<linearGradient id="paint3_linear" x1="344.103" y1="426.06" x2="344.103" y2="195.267" gradientUnits="userSpaceOnUse">
<stop offset="0.31" stop-color="white"/>
<stop offset="0.44" stop-color="#E8EDF1"/>
<stop offset="0.69" stop-color="#C8D4DF"/>
<stop offset="0.99" stop-color="#B7C7D3"/>
</linearGradient>
<linearGradient id="paint4_linear" x1="52153.6" y1="61394.4" x2="53267.5" y2="51810.6" gradientUnits="userSpaceOnUse">
<stop offset="0.01" stop-color="#BBBFD9"/>
<stop offset="0.29" stop-color="#CACDE2"/>
<stop offset="0.84" stop-color="#F2F3F8"/>
<stop offset="1" stop-color="white"/>
</linearGradient>
<linearGradient id="paint5_linear" x1="572.13" y1="236.657" x2="607.345" y2="236.657" gradientUnits="userSpaceOnUse">
<stop stop-color="#C2C2C2"/>
<stop offset="1" stop-color="#BDBDBD"/>
</linearGradient>
<linearGradient id="paint6_linear" x1="43526.5" y1="35114.9" x2="45103.2" y2="31348.9" gradientUnits="userSpaceOnUse">
<stop offset="0.01" stop-color="#BBBFD9"/>
<stop offset="0.29" stop-color="#CACDE2"/>
<stop offset="0.84" stop-color="#F2F3F8"/>
<stop offset="1" stop-color="white"/>
</linearGradient>
<linearGradient id="paint7_linear" x1="37704.7" y1="19398.4" x2="34493.4" y2="16144.4" gradientUnits="userSpaceOnUse">
<stop stop-color="#753200"/>
<stop offset="1" stop-color="#A04400"/>
</linearGradient>
<linearGradient id="paint8_linear" x1="555.363" y1="70.0594" x2="576.012" y2="65.6445" gradientUnits="userSpaceOnUse">
<stop stop-color="#A04400" stop-opacity="0"/>
<stop offset="0.18" stop-color="#9A4100" stop-opacity="0.14"/>
<stop offset="0.52" stop-color="#8A3B00" stop-opacity="0.52"/>
<stop offset="0.9" stop-color="#753200"/>
</linearGradient>
<linearGradient id="paint9_linear" x1="38688.3" y1="14818" x2="36356.9" y2="11633.6" gradientUnits="userSpaceOnUse">
<stop stop-color="#753200"/>
<stop offset="1" stop-color="#A04400"/>
</linearGradient>
<linearGradient id="paint10_linear" x1="5859.22" y1="3302.5" x2="5966.3" y2="3302.5" gradientUnits="userSpaceOnUse">
<stop stop-color="#753200"/>
<stop offset="1" stop-color="#A04400"/>
</linearGradient>
<linearGradient id="paint11_linear" x1="27235.7" y1="21862.9" x2="24116.9" y2="19697.9" gradientUnits="userSpaceOnUse">
<stop stop-color="#753200"/>
<stop offset="1" stop-color="#A04400"/>
</linearGradient>
<linearGradient id="paint12_linear" x1="250.456" y1="340.484" x2="391.473" y2="340.484" gradientUnits="userSpaceOnUse">
<stop offset="0.01" stop-color="#BBBFD9"/>
<stop offset="0.77" stop-color="#CACDE1"/>
<stop offset="1" stop-color="#D0D2E4"/>
</linearGradient>
<linearGradient id="paint13_linear" x1="171.312" y1="366.33" x2="227.859" y2="353.329" gradientUnits="userSpaceOnUse">
<stop stop-color="#ABAAEA"/>
<stop offset="1" stop-color="#E7EEFE"/>
</linearGradient>
<linearGradient id="paint14_linear" x1="173.887" y1="345.348" x2="223.978" y2="345.348" gradientUnits="userSpaceOnUse">
<stop stop-color="#CDCCFF"/>
<stop offset="0.89" stop-color="#8988D5"/>
</linearGradient>
<linearGradient id="paint15_linear" x1="7979.05" y1="24886" x2="10937.6" y2="24886" gradientUnits="userSpaceOnUse">
<stop stop-color="#201F4F"/>
<stop offset="0.26" stop-color="#27275A"/>
<stop offset="0.72" stop-color="#393C76"/>
<stop offset="1" stop-color="#464B8B"/>
</linearGradient>
<linearGradient id="paint16_linear" x1="187.315" y1="318.142" x2="166.137" y2="310.762" gradientUnits="userSpaceOnUse">
<stop stop-color="#1F1844"/>
<stop offset="0.99" stop-color="#3D3C99"/>
</linearGradient>
<linearGradient id="paint17_linear" x1="4702.18" y1="4619.91" x2="4183.74" y2="4435.78" gradientUnits="userSpaceOnUse">
<stop stop-color="#1F1844"/>
<stop offset="0.99" stop-color="#3D3C99"/>
</linearGradient>
<linearGradient id="paint18_linear" x1="176.933" y1="296.537" x2="182.695" y2="290.697" gradientUnits="userSpaceOnUse">
<stop stop-color="#E0E4EB"/>
<stop offset="0.99" stop-color="#F3F6FD"/>
</linearGradient>
<linearGradient id="paint19_linear" x1="36587.2" y1="-27106.8" x2="36641.9" y2="-27277.2" gradientUnits="userSpaceOnUse">
<stop stop-color="#E0E4EB"/>
<stop offset="0.99" stop-color="#F3F6FD"/>
</linearGradient>
<linearGradient id="paint20_linear" x1="-31641.3" y1="-16237.6" x2="-31537.7" y2="-16109.2" gradientUnits="userSpaceOnUse">
<stop stop-color="#E0E4EB"/>
<stop offset="0.99" stop-color="#F3F6FD"/>
</linearGradient>
<linearGradient id="paint21_linear" x1="-25371.5" y1="-26551.1" x2="-25290.3" y2="-26412" gradientUnits="userSpaceOnUse">
<stop stop-color="#E0E4EB"/>
<stop offset="0.99" stop-color="#F3F6FD"/>
</linearGradient>
<linearGradient id="paint22_linear" x1="16169.9" y1="39309.1" x2="16288.6" y2="39280.9" gradientUnits="userSpaceOnUse">
<stop stop-color="#E0E4EB"/>
<stop offset="0.99" stop-color="#F3F6FD"/>
</linearGradient>
<linearGradient id="paint23_linear" x1="24289.1" y1="-40442.5" x2="24296.7" y2="-40633.7" gradientUnits="userSpaceOnUse">
<stop stop-color="#E0E4EB"/>
<stop offset="0.99" stop-color="#F3F6FD"/>
</linearGradient>
<linearGradient id="paint24_linear" x1="-22663.5" y1="-29862" x2="-22605.5" y2="-29708.5" gradientUnits="userSpaceOnUse">
<stop stop-color="#E0E4EB"/>
<stop offset="0.99" stop-color="#F3F6FD"/>
</linearGradient>
<linearGradient id="paint25_linear" x1="197.799" y1="260.369" x2="191.589" y2="285.764" gradientUnits="userSpaceOnUse">
<stop stop-color="#E6EAF1"/>
<stop offset="0.99" stop-color="#F3F6FD"/>
</linearGradient>
<linearGradient id="paint26_linear" x1="22923.8" y1="7915.39" x2="24796.2" y2="6797.94" gradientUnits="userSpaceOnUse">
<stop stop-color="#753200"/>
<stop offset="1" stop-color="#A04400"/>
</linearGradient>
<linearGradient id="paint27_linear" x1="302.793" y1="316.749" x2="431.666" y2="316.749" gradientUnits="userSpaceOnUse">
<stop stop-color="white"/>
<stop offset="0.16" stop-color="#F2F3F8"/>
<stop offset="0.71" stop-color="#CACDE2"/>
<stop offset="0.99" stop-color="#BBBFD9"/>
</linearGradient>
<linearGradient id="paint28_linear" x1="6005.5" y1="12339.7" x2="6005.5" y2="10162" gradientUnits="userSpaceOnUse">
<stop stop-color="#1E364B"/>
<stop offset="0.26" stop-color="#28435A"/>
<stop offset="0.72" stop-color="#385974"/>
<stop offset="1" stop-color="#486D8D"/>
</linearGradient>
<linearGradient id="paint29_linear" x1="2721.59" y1="44398.3" x2="2721.59" y2="36447.1" gradientUnits="userSpaceOnUse">
<stop stop-color="#1E364B"/>
<stop offset="0.26" stop-color="#28435A"/>
<stop offset="0.72" stop-color="#385974"/>
<stop offset="1" stop-color="#486D8D"/>
</linearGradient>
<linearGradient id="paint30_linear" x1="4916.82" y1="25870.2" x2="4916.82" y2="21242.6" gradientUnits="userSpaceOnUse">
<stop stop-color="#1E364B"/>
<stop offset="0.26" stop-color="#28435A"/>
<stop offset="0.72" stop-color="#385974"/>
<stop offset="1" stop-color="#486D8D"/>
</linearGradient>
</defs>
</svg>
